<svg width="32" height="32" viewBox="0 0 32 32" fill="none" xmlns="http://www.w3.org/2000/svg">
<g clip-path="url(#clip0_3_2)">
<path d="M16 0L19.6028 2.55431L24 2.14359L25.8429 6.15707L29.8564 8L29.4457 12.3972L32 16L29.4457 19.6028L29.8564 24L25.8429 25.8429L24 29.8564L19.6028 29.4457L16 32L12.3972 29.4457L8 29.8564L6.15707 25.8429L2.14359 24L2.55431 19.6028L0 16L2.55431 12.3972L2.14359 8L6.15707 6.15707L8 2.14359L12.3972 2.55431L16 0Z" fill="#1ED0EB"/>
<path d="M15.864 7.864C18.104 7.864 19.736 8.304 20.76 9.184C21.784 10.064 22.296 11.304 22.296 12.904C22.296 13.608 22.176 14.288 21.936 14.944C21.712 15.584 21.336 16.16 20.808 16.672C20.28 17.184 19.576 17.592 18.696 17.896C17.816 18.184 16.736 18.328 15.456 18.328H13.488V25H11.328V7.864H15.864ZM15.672 9.712H13.488V16.48H15.216C16.304 16.48 17.208 16.368 17.928 16.144C18.648 15.904 19.184 15.528 19.536 15.016C19.888 14.504 20.064 13.832 20.064 13C20.064 11.896 19.712 11.072 19.008 10.528C18.304 9.984 17.192 9.712 15.672 9.712Z" fill="white"/>
</g>
<defs>
<clipPath id="clip0_3_2">
<rect width="32" height="32" fill="white"/>
</clipPath>
</defs>
</svg>
